<?xml version='1.0' encoding='iso-8859-1'?>
<!DOCTYPE svg PUBLIC '-//W3C//DTD SVG 1.1//EN' 'http://www.w3.org/Graphics/SVG/1.1/DTD/svg11.dtd'>
<svg version="1.1" xmlns="http://www.w3.org/2000/svg" viewBox="0 0 297 297" xmlns:xlink="http://www.w3.org/1999/xlink" enable-background="new 0 0 297 297">
  <path d="m81.389,123.888l-43.508,109.058h-27.423c-5.776,0-10.458,4.683-10.458,10.458 0,5.775 4.682,10.458 10.458,10.458h34.511c4.28,0 8.127-2.607 9.713-6.583l24.908-62.438h70.03v82.616h-24.053c-5.775,0-10.458,4.682-10.458,10.458 0,5.775 4.682,10.458 10.458,10.458h69.021c5.775,0 10.458-4.682 10.458-10.458 0-5.775-4.682-10.458-10.458-10.458h-24.053v-82.616h75.85c4.767,0 8.931-3.224 10.125-7.839l40.157-155.297c0.81-3.132 0.125-6.464-1.856-9.021-1.981-2.558-5.034-4.055-8.269-4.055h-46.589c-4.767,0-8.931,3.224-10.125,7.839l-15.821,61.182h-88.441c-5.775,0-10.458,4.682-10.458,10.458v29.23h-24.02c-4.382-0.002-8.143,2.727-9.699,6.55zm54.635-25.324h72.575l-4.854,18.772h-67.721v-18.772zm102.263,65.361h-150.354l10.242-25.674h113.668c4.767,0 8.931-3.224 10.125-7.839l26.083-100.869h24.985l-34.749,134.382z"/>
</svg>
